<svg width="45" height="45" viewBox="0 0 45 45" fill="none" xmlns="http://www.w3.org/2000/svg">
<path fill-rule="evenodd" clip-rule="evenodd" d="M22.1921 44C34.1936 44 43.9227 34.3741 43.9227 22.5C43.9227 10.6259 34.1936 1 22.1921 1C10.1906 1 0.461426 10.6259 0.461426 22.5C0.461426 34.3741 10.1906 44 22.1921 44Z" fill="white" stroke="white" stroke-width="0.5"/>
<g clip-path="url(#clip0_201_2144)">
<path d="M29.4224 14.5625H27.6255V13.625C27.6255 13.2798 27.3457 13 27.0005 13C26.6553 13 26.3755 13.2798 26.3755 13.625V14.5625H17.6255V13.625C17.6255 13.2798 17.3457 13 17.0005 13C16.6553 13 16.3755 13.2798 16.3755 13.625V14.5625H14.5786C13.157 14.5625 12.0005 15.719 12.0005 17.1406V30.4219C12.0005 31.8435 13.157 33 14.5786 33H29.4224C30.844 33 32.0005 31.8435 32.0005 30.4219V17.1406C32.0005 15.719 30.844 14.5625 29.4224 14.5625ZM14.5786 15.8125H16.3755V16.4375C16.3755 16.7827 16.6553 17.0625 17.0005 17.0625C17.3457 17.0625 17.6255 16.7827 17.6255 16.4375V15.8125H26.3755V16.4375C26.3755 16.7827 26.6553 17.0625 27.0005 17.0625C27.3457 17.0625 27.6255 16.7827 27.6255 16.4375V15.8125H29.4224C30.1547 15.8125 30.7505 16.4083 30.7505 17.1406V18.625H13.2505V17.1406C13.2505 16.4083 13.8463 15.8125 14.5786 15.8125ZM29.4224 31.75H14.5786C13.8463 31.75 13.2505 31.1542 13.2505 30.4219V19.875H30.7505V30.4219C30.7505 31.1542 30.1547 31.75 29.4224 31.75Z" fill="black" stroke="black" stroke-width="0.5"/>
</g>
<defs>
<clipPath id="clip0_201_2144">
<rect width="20" height="20" fill="white" transform="translate(12.0005 13)"/>
</clipPath>
</defs>
</svg>
