<svg width="45" height="45" viewBox="0 0 45 45" fill="none" xmlns="http://www.w3.org/2000/svg">
<path fill-rule="evenodd" clip-rule="evenodd" d="M22.6535 44C34.655 44 44.3841 34.3741 44.3841 22.5C44.3841 10.6259 34.655 1 22.6535 1C10.652 1 0.922852 10.6259 0.922852 22.5C0.922852 34.3741 10.652 44 22.6535 44Z" fill="white" stroke="white" stroke-width="0.5"/>
<path d="M20.6121 28.06H18.5687L17.23 32.2102C17.1852 32.3671 17.1292 32.4959 17.0564 32.5967C16.9892 32.7032 16.8716 32.7815 16.7148 32.8432C16.5579 32.9047 16.3339 32.944 16.0427 32.9664C15.7515 32.9888 15.3705 33 14.9001 33C14.396 33 14.004 32.9832 13.7183 32.9496C13.4327 32.916 13.2367 32.8376 13.1302 32.7144C13.0182 32.5855 12.979 32.4063 13.0126 32.1767C13.0462 31.947 13.1302 31.6446 13.2591 31.2581L19.8008 12.4113C19.8624 12.2265 19.9408 12.0753 20.0305 11.9633C20.1145 11.8456 20.2545 11.7616 20.4449 11.7C20.641 11.6384 20.9042 11.5992 21.2459 11.5824C21.5819 11.5656 22.03 11.56 22.59 11.56C23.2341 11.56 23.7495 11.5656 24.1303 11.5824C24.5168 11.5992 24.8136 11.6384 25.0264 11.7C25.2393 11.7616 25.3905 11.8512 25.4857 11.9688C25.5753 12.0921 25.6593 12.2545 25.7209 12.4617L32.2851 31.2917C32.4139 31.6838 32.498 31.9975 32.5316 32.2271C32.5651 32.4567 32.5204 32.6303 32.4027 32.7479C32.2795 32.86 32.0667 32.9328 31.7586 32.9608C31.4562 32.9888 31.0305 33 30.4984 33C29.9384 33 29.5015 32.9944 29.1934 32.9776C28.8798 32.9608 28.6446 32.9272 28.4765 32.8768C28.3141 32.8264 28.2021 32.7591 28.1349 32.6696C28.0677 32.5855 28.0117 32.4679 27.9724 32.3279L26.5778 28.06H24.5341M22.5397 15.699H22.5228L19.5656 24.7331H25.5249L22.5397 15.699Z" stroke="black" stroke-width="1.5" stroke-miterlimit="2.613" stroke-linecap="round" stroke-linejoin="round"/>
</svg>
