<svg width="45" height="45" viewBox="0 0 45 45" fill="none" xmlns="http://www.w3.org/2000/svg">
<path fill-rule="evenodd" clip-rule="evenodd" d="M22.5002 44C34.5017 44 44.2308 34.3741 44.2308 22.5C44.2308 10.6259 34.5017 1 22.5002 1C10.4987 1 0.769531 10.6259 0.769531 22.5C0.769531 34.3741 10.4987 44 22.5002 44Z" fill="white" stroke="black" stroke-width="1.5"/>
<path d="M34.4964 28.6123H10.5636C9.97623 28.6123 9.5 28.1361 9.5 27.5486C9.5 26.9612 9.97623 26.485 10.5636 26.485H34.4964C35.0839 26.485 35.5601 26.9612 35.5601 27.5486C35.5601 28.1361 35.0839 28.6123 34.4964 28.6123Z" stroke="black" stroke-width="1.2" stroke-miterlimit="10" stroke-linecap="round" stroke-linejoin="round"/>
<path d="M10.6177 22.8578L12.1219 24.3621" stroke="black" stroke-width="1.2" stroke-miterlimit="10" stroke-linecap="round" stroke-linejoin="round"/>
<path d="M10.6177 24.3621L12.1219 22.8578" stroke="black" stroke-width="1.2" stroke-miterlimit="10" stroke-linecap="round" stroke-linejoin="round"/>
<path d="M11.6279 18.6888C21.2824 -6.00565 24.3526 29.3246 15.0983 33.803C11.2958 35.643 12.9844 24.0535 20.7634 21.568C22.5683 20.9913 24.3417 22.5563 23.8081 24.3219C23.7975 24.3569 23.7862 24.3919 23.7742 24.4269C23.7742 24.4269 24.9309 17.7638 27.2445 20.003L28.11 20.9876C29.4584 22.5215 31.8296 22.7229 33.4333 21.4398" stroke="black" stroke-width="1.2" stroke-miterlimit="10" stroke-linecap="round" stroke-linejoin="round"/>
</svg>
