<svg width="45" height="45" viewBox="0 0 45 45" fill="none" xmlns="http://www.w3.org/2000/svg">
<path fill-rule="evenodd" clip-rule="evenodd" d="M22.1144 44C34.1159 44 43.8451 34.3741 43.8451 22.5C43.8451 10.6259 34.1159 1 22.1144 1C10.1129 1 0.383789 10.6259 0.383789 22.5C0.383789 34.3741 10.1129 44 22.1144 44Z" fill="white" stroke="white" stroke-width="0.5"/>
<g clip-path="url(#clip0_201_2158)">
<path d="M16.6187 19.0104V16.9726H27.3792V19.0104" stroke="black" stroke-width="1.3" stroke-miterlimit="10"/>
<path d="M21.999 16.9727V27.6642" stroke="black" stroke-width="1.3" stroke-miterlimit="10"/>
<path d="M19.917 27.172H24.0806" stroke="black" stroke-width="1.3" stroke-miterlimit="10"/>
<path d="M11.5762 13.3926V30.3789" stroke="black" stroke-width="1.3" stroke-miterlimit="10"/>
<path d="M32.4219 13.3926V30.3789" stroke="black" stroke-width="1.3" stroke-miterlimit="10"/>
<path d="M13.3916 11.5771H30.6064" stroke="black" stroke-width="1.3" stroke-miterlimit="10"/>
<path d="M13.3916 32.4229H30.6064" stroke="black" stroke-width="1.3" stroke-miterlimit="10"/>
<path d="M14.0941 11.9283C14.0941 13.125 13.124 14.095 11.9274 14.095C10.7308 14.095 9.76074 13.125 9.76074 11.9283C9.76074 10.7317 10.7308 9.76166 11.9274 9.76166C13.124 9.76166 14.0941 10.7317 14.0941 11.9283Z" stroke="black" stroke-width="1.3" stroke-miterlimit="10"/>
<path d="M14.0941 32.0716C14.0941 33.2682 13.124 34.2383 11.9274 34.2383C10.7308 34.2383 9.76074 33.2682 9.76074 32.0716C9.76074 30.875 10.7308 29.9049 11.9274 29.9049C13.124 29.9049 14.0941 30.875 14.0941 32.0716Z" stroke="black" stroke-width="1.3" stroke-miterlimit="10"/>
<path d="M34.2371 11.9283C34.2371 13.125 33.2671 14.095 32.0704 14.095C30.8739 14.095 29.9038 13.125 29.9038 11.9283C29.9038 10.7317 30.8739 9.76166 32.0704 9.76166C33.2671 9.76166 34.2371 10.7317 34.2371 11.9283Z" stroke="black" stroke-width="1.3" stroke-miterlimit="10"/>
<path d="M34.2371 32.0716C34.2371 33.2682 33.2671 34.2383 32.0704 34.2383C30.8739 34.2383 29.9038 33.2682 29.9038 32.0716C29.9038 30.875 30.8739 29.9049 32.0704 29.9049C33.2671 29.9049 34.2371 30.875 34.2371 32.0716Z" stroke="black" stroke-width="1.3" stroke-miterlimit="10"/>
</g>
<defs>
<clipPath id="clip0_201_2158">
<rect width="26" height="26" fill="white" transform="translate(8.99902 9)"/>
</clipPath>
</defs>
</svg>
