<svg width="45" height="45" viewBox="0 0 45 45" fill="none" xmlns="http://www.w3.org/2000/svg">
<path fill-rule="evenodd" clip-rule="evenodd" d="M22.7306 44C34.7322 44 44.4613 34.3741 44.4613 22.5C44.4613 10.6259 34.7322 1 22.7306 1C10.7291 1 1 10.6259 1 22.5C1 34.3741 10.7291 44 22.7306 44Z" fill="white" stroke="white" stroke-width="0.5"/>
<g clip-path="url(#clip0_201_2127)">
<path d="M23 24.0938C20.5877 24.0938 18.625 22.131 18.625 19.7188C18.625 17.3065 20.5877 15.3438 23 15.3438C25.4123 15.3438 27.375 17.3065 27.375 19.7188C27.375 22.131 25.4123 24.0938 23 24.0938Z" stroke="black" stroke-width="1.3" stroke-miterlimit="10" stroke-linecap="round" stroke-linejoin="round"/>
<path d="M14.8325 33.7172C14.8331 33.7101 14.8336 33.7029 14.8347 33.6958C15.2312 29.5352 18.7355 26.2813 23.0001 26.2813C27.2646 26.2813 30.7684 29.5347 31.166 33.6953" stroke="black" stroke-width="1.3" stroke-miterlimit="10" stroke-linecap="round" stroke-linejoin="round"/>
<path d="M33.6094 14.0312C33.6094 14.3333 33.3645 14.5781 33.0625 14.5781C32.7605 14.5781 32.5156 14.3333 32.5156 14.0312C32.5156 13.7292 32.7605 13.4844 33.0625 13.4844C33.3645 13.4844 33.6094 13.7292 33.6094 14.0312Z" fill="black"/>
<path d="M34.5074 16.0223C35.7423 18.0561 36.4531 20.4442 36.4531 23C36.4531 27.3635 34.381 31.2387 31.1659 33.6952V33.6958C28.9024 35.4261 26.0723 36.4531 23 36.4531C19.9282 36.4531 17.0981 35.4261 14.8347 33.6958C11.6195 31.2392 9.54688 27.3641 9.54688 23C9.54688 15.5647 15.5636 9.54688 23 9.54688C26.1101 9.54688 28.9723 10.5996 31.2497 12.3686" stroke="black" stroke-width="1.3" stroke-miterlimit="10" stroke-linecap="round" stroke-linejoin="round"/>
</g>
<defs>
<clipPath id="clip0_201_2127">
<rect width="28" height="28" fill="white" transform="translate(9 9)"/>
</clipPath>
</defs>
</svg>
